<?xml version="1.0" encoding="utf-8"?>
<!-- Generator: Adobe Illustrator 18.0.0, SVG Export Plug-In . SVG Version: 6.00 Build 0)  -->
<svg version="1.1" id="Layer_1" xmlns="http://www.w3.org/2000/svg" xmlns:xlink="http://www.w3.org/1999/xlink" x="0px" y="0px"
	 viewBox="0 0 16 16" enable-background="new 0 0 16 16" xml:space="preserve">
<g id="heading_two_2_">
	<g id="pt-icon-header2-16">
		<path d="M1 0C0.44 0 0 0.45 0 1V11C0 11.54 0.45 12 1 12C1.56 12 2 11.55 2 11V7H6V11C6 11.54 6.45 12 7 12C7.56 12 8 11.55 8 11V1C8 0.46 7.55 0 7 0C6.44 0 6 0.45 6 1V5H2V1C2 0.46 1.55 0 1 0Z" />
		<path d="M13.3564 11.5187H12.6035V12.3262H13.3564C13.8873 12.3333 14.2936 12.4581 14.5753 12.7005C14.857 12.943 14.9978 13.2906 14.9978 13.7433C14.9978 14.2103 14.8696 14.5686 14.6132 14.8182C14.3568 15.0677 13.9866 15.1925 13.5027 15.1925C13.0477 15.1925 12.6847 15.0695 12.4139 14.8235C12.143 14.5775 12.0076 14.2496 12.0076 13.8396H11C11 14.4884 11.2311 15.0107 11.6934 15.4064C12.1593 15.8021 12.7624 16 13.5027 16C14.243 16 14.8443 15.795 15.3066 15.385C15.7689 14.975 16 14.4207 16 13.7219C16 13.2692 15.8808 12.8859 15.6425 12.5722C15.4077 12.2585 15.0737 12.0339 14.6403 11.8984C15.0231 11.7415 15.3247 11.5045 15.545 11.1872C15.7689 10.8699 15.8808 10.5419 15.8808 10.2032C15.8808 9.51159 15.6696 8.97148 15.247 8.58289C14.8245 8.1943 14.2412 8 13.4973 8C12.7931 8 12.2116 8.20499 11.753 8.61497C11.2979 9.02139 11.0704 9.53298 11.0704 10.1497H12.0726C12.0726 9.74688 12.2008 9.42424 12.4572 9.18182C12.7172 8.93583 13.0639 8.81283 13.4973 8.81283C14.4182 8.81283 14.8787 9.26916 14.8787 10.1818C14.8787 10.5882 14.7432 10.9109 14.4724 11.1497C14.2015 11.3886 13.8295 11.5116 13.3564 11.5187Z" />
	</g>
</g>
</svg>
